<svg xmlns="http://www.w3.org/2000/svg" viewBox="0 0 185.2 52.9">
    <path fill="#1a1a1a" d="m99.3 41.6 1 .4 1.4.2q2.1 0 3.3-1 1.3-1 2.2-3-2.4-4.7-4.6-10-2-5.2-3.4-10.5h3.8l1 3.7 1.4 4.2 1.6 4.3 1.8 4q1.4-4 2.5-8t2-8.2h3.8q-1.4 5.7-3 11-1.8 5.2-3.8 9.8-.7 1.7-1.6 3-.8 1.2-1.8 2-1 .9-2.3 1.3-1.3.3-2.8.3h-1l-.9-.2-.8-.2-.5-.2zM137.3 10.7q5.6 0 8.7 2.2 3 2 3 6.4 0 2.3-.8 4-.9 1.6-2.4 2.6-1.6 1-3.8 1.5-2.3.5-5.1.5h-3v10H130V11.3l3.5-.5 3.7-.1zm.3 3.3-3.7.1v10.6h2.8q2 0 3.5-.3 1.6-.2 2.6-.8 1-.7 1.7-1.7.6-1 .6-2.7 0-1.5-.7-2.5-.5-1-1.6-1.6-1-.6-2.4-.9-1.3-.2-2.8-.2z"/>
    <g fill="#c9d1d9">
        <path d="M11 10.7q5.7 0 8.8 2.2 3 2 3 6.4 0 2.3-.8 4-.8 1.6-2.4 2.6-1.6 1-3.8 1.5-2.3.5-5.1.5h-3v10H3.9V11.3l3.6-.5 3.6-.1zm.4 3.3-3.7.1v10.6h2.8q2 0 3.5-.3 1.6-.2 2.6-.8 1.1-.7 1.7-1.7.6-1 .6-2.7 0-1.5-.7-2.5-.5-1-1.6-1.6-1-.6-2.4-.9-1.3-.2-2.8-.2zM44.3 27.8q0 2.4-.7 4.3-.7 2-2 3.3-1.2 1.4-3 2.2-1.7.8-3.8.8-2 0-3.8-.8-1.7-.8-3-2.2-1.3-1.4-2-3.3-.7-2-.7-4.3 0-2.4.7-4.3.7-2 2-3.4t3-2.2q1.8-.7 3.8-.7 2 0 3.8.7 1.8.8 3 2.2 1.3 1.4 2 3.4.7 1.9.7 4.3zm-3.8 0q0-3.5-1.5-5.4-1.5-2-4.2-2-2.6 0-4.2 2-1.5 2-1.5 5.4 0 3.4 1.5 5.4 1.6 2 4.2 2 2.7 0 4.2-2t1.5-5.4zM48.2 27.8q0-2.7.8-4.7t2-3.3q1.4-1.3 3-2 1.7-.6 3.4-.6 4.1 0 6.3 2.5 2.2 2.6 2.2 7.8v1.2H52q.2 3.2 1.8 4.8 1.6 1.6 5 1.6 1.9 0 3.2-.3l2-.6.5 3-2.4.7q-1.6.4-3.7.4-2.6 0-4.6-.8-1.9-.8-3.1-2.2-1.3-1.4-1.9-3.3-.6-2-.6-4.2zm13.9-2q0-2.4-1.2-4-1.3-1.6-3.5-1.6-1.2 0-2.2.5-1 .5-1.6 1.3-.7.8-1 1.8-.4 1-.5 2zM74.4 17.7h7.7v3h-7.7V30q0 1.5.3 2.5.2 1 .7 1.6.4.5 1.1.8.7.2 1.7.2 1.6 0 2.6-.4l1.4-.5.7 3-2 .7q-1.3.4-3 .4-2.1 0-3.5-.5-1.3-.6-2.1-1.6t-1.2-2.6q-.3-1.5-.3-3.5V12l3.6-.7zM94.1 17.2l1 .1q.7 0 1.3.2l1 .2.7.1-.6 3.2-1.4-.4q-1-.2-2.5-.2l-2 .2-1.3.3v17h-3.6V18.5l3.1-.8q2-.5 4.3-.5z"/>
        <path d="M157 37.9h-3.5V17.7h3.6zM155.4 14q-1 0-1.7-.6-.7-.7-.7-1.7 0-1.1.7-1.8.7-.6 1.7-.6t1.6.6q.7.7.7 1.8 0 1-.7 1.7-.7.6-1.6.6zM177.3 27.8q0-3.5-1.7-5.4-1.8-2-4.7-2-1.6 0-2.6.2l-1.4.3v12.7q.7.5 2 1 1.1.5 2.6.5 1.6 0 2.7-.5 1-.6 1.8-1.6.7-1 1-2.3.3-1.3.3-2.9zm3.8 0q0 2.3-.7 4.2-.5 2-1.7 3.4t-2.9 2.1q-1.6.8-3.8.8-1.8 0-3.1-.4-1.3-.5-2-1V45h-3.6V18.3l3.2-.7q2-.4 4.4-.4 2.4 0 4.2.8 1.9.7 3.2 2 1.3 1.4 2 3.4.8 2 .8 4.4z"/>
        <path d="M144.2 32 132 44h-.3l4.8-8.3h-30.2v-4h38zm0-6.5v.3h-37.9v-4h30.2l-4.8-8.4h.3z"/>
    </g>
</svg>